<svg height="512pt" viewBox="-36 0 512 512" width="512pt" xmlns="http://www.w3.org/2000/svg"><path d="m137.171875 350.230469c-4.140625 0-7.492187 3.355469-7.492187 7.492187 0 4.136719 3.351562 7.492188 7.492187 7.492188h13.183594c4.136719 0 7.492187-3.355469 7.492187-7.492188 0-4.136718-3.355468-7.492187-7.492187-7.492187zm0 0"/><path d="m210.625 350.230469h-25.636719c-4.140625 0-7.496093 3.355469-7.496093 7.492187 0 4.136719 3.355468 7.492188 7.496093 7.492188h25.636719c22.402344 0 40.628906-18.226563 40.628906-40.628906 0-22.40625-18.226562-40.632813-40.628906-40.632813h-73.457031c-4.136719 0-7.492188 3.355469-7.492188 7.492187 0 4.140626 3.355469 7.492188 7.492188 7.492188h73.457031c14.140625 0 25.644531 11.503906 25.644531 25.644531s-11.503906 25.648438-25.644531 25.648438zm0 0"/><path d="m198.027344 178.851562v-13.960937c0-4.136719-3.355469-7.492187-7.492188-7.492187-4.140625 0-7.492187 3.355468-7.492187 7.492187v13.960937c0 4.136719 3.351562 7.492188 7.492187 7.492188 4.136719 0 7.492188-3.355469 7.492188-7.492188zm0 0"/><path d="m289.496094 164.890625v13.960937c0 4.136719 3.351562 7.492188 7.492187 7.492188 4.136719 0 7.488281-3.351562 7.488281-7.492188v-13.960937c0-4.136719-3.351562-7.492187-7.488281-7.492187-4.140625 0-7.492187 3.355468-7.492187 7.492187zm0 0"/><path d="m263.449219 214.914062c-2.875-2.972656-7.621094-3.054687-10.59375-.175781-3.984375 3.855469-12.109375 3.855469-16.097657 0-2.976562-2.878906-7.71875-2.796875-10.59375.175781-2.878906 2.976563-2.796874 7.71875.175782 10.597657 4.917968 4.753906 11.691406 7.132812 18.464844 7.132812 6.773437 0 13.546874-2.378906 18.464843-7.132812 2.976563-2.878907 3.054688-7.621094.179688-10.597657zm0 0"/><path d="m398.78125 283.953125h-25.597656v-119.0625c0-19.625-3.414063-38.832031-10.148438-57.082031-1.433594-3.882813-5.742187-5.871094-9.625-4.4375-3.878906 1.433594-5.867187 5.742187-4.433594 9.625 6.121094 16.585937 9.222657 34.042968 9.222657 51.894531v206.757813c0 69.117187-56.230469 125.347656-125.347657 125.347656h-139.226562c-.175781 0-.351562.007812-.527344.019531h-54.601562c-9.257813 0-17.167969-4.984375-21.164063-13.335937-3.996093-8.355469-2.910156-17.644532 2.902344-24.851563 24.601563-30.507813 38.152344-68.898437 38.152344-108.09375v-185.84375c0-82.660156 67.25-149.90625 149.90625-149.90625 50.847656 0 97.820312 25.460937 125.644531 68.109375 2.261719 3.464844 6.90625 4.441406 10.367188 2.179688 3.464843-2.261719 4.441406-6.902344 2.183593-10.371094-30.601562-46.898438-82.261719-74.902344-138.195312-74.902344-90.917969 0-164.890625 73.96875-164.890625 164.890625v185.84375c0 35.785156-12.367188 70.832031-34.832032 98.6875-9.382812 11.632813-11.203124 27.238281-4.757812 40.722656 6.449219 13.480469 19.738281 21.855469 34.683594 21.855469h55.136718c.175782 0 .351563-.007812.527344-.019531h138.691406c77.378907 0 140.332032-62.953125 140.332032-140.332031v-6.433594h25.597656c22.402344 0 40.628906-18.226563 40.628906-40.628906 0-22.402344-18.226562-40.632813-40.628906-40.632813zm0 66.277344h-25.597656v-51.289063h25.597656c14.140625 0 25.644531 11.503906 25.644531 25.644532 0 14.140624-11.503906 25.644531-25.644531 25.644531zm0 0"/></svg>