<?xml version="1.0" standalone="no"?>
<!DOCTYPE svg PUBLIC "-//W3C//DTD SVG 20010904//EN"
 "http://www.w3.org/TR/2001/REC-SVG-20010904/DTD/svg10.dtd">
<svg version="1.0" xmlns="http://www.w3.org/2000/svg"
 width="968.000000pt" height="968.000000pt" viewBox="0 0 968.000000 968.000000"
 preserveAspectRatio="xMidYMid meet">
<metadata>
Created by potrace 1.11, written by Peter Selinger 2001-2013
</metadata>
<g transform="translate(0.000000,968.000000) scale(0.100000,-0.100000)"
fill="#000000" stroke="none">
<path d="M6671 9533 c-23 -76 -51 -167 -63 -203 -11 -36 -21 -72 -23 -80 -2
-8 -10 -35 -18 -60 -16 -48 -118 -378 -122 -395 -1 -5 -4 -17 -8 -25 -14 -39
-38 -118 -43 -140 -2 -14 -11 -41 -18 -60 -8 -19 -14 -38 -15 -42 -1 -4 -3
-13 -6 -20 -5 -16 -39 -131 -40 -138 0 -3 -9 -32 -19 -65 -47 -151 -77 -249
-111 -360 -20 -66 -41 -131 -45 -145 -16 -47 -69 -225 -76 -255 -4 -16 -9 -34
-13 -40 -3 -5 -6 -13 -7 -17 -1 -5 -2 -9 -4 -10 -1 -2 -3 -10 -5 -19 -1 -8
-19 -69 -40 -135 -20 -65 -37 -120 -37 -121 1 -2 -6 -22 -14 -45 -9 -24 -17
-50 -19 -58 -2 -8 -22 -76 -45 -150 -50 -162 -102 -331 -105 -345 -1 -5 -5
-17 -8 -25 -3 -8 -20 -60 -36 -115 -16 -55 -66 -219 -111 -365 -45 -146 -86
-281 -92 -300 -5 -19 -11 -41 -13 -48 -3 -7 -5 -14 -5 -17 0 -3 -6 -21 -14
-40 -9 -20 -15 -38 -16 -40 0 -3 -3 -18 -6 -35 l-6 -30 -139 0 c-77 -1 -195
-1 -264 -1 -69 0 -185 0 -259 1 l-134 0 15 48 c8 26 16 55 18 65 2 9 6 21 9
25 3 5 7 19 10 33 5 23 16 62 91 319 20 69 37 130 39 135 1 6 7 26 13 45 21
68 47 155 48 160 6 31 19 77 23 85 4 6 7 15 8 20 1 6 23 83 48 170 26 88 49
167 51 175 2 8 32 110 66 225 33 116 62 215 63 220 1 6 5 16 9 23 5 6 6 12 3
12 -3 0 2 16 10 35 8 19 13 36 12 37 -1 2 6 28 15 58 9 30 34 118 57 195 22
77 44 154 49 170 17 54 143 490 145 500 1 6 5 15 8 21 4 6 10 26 13 44 3 18
10 41 16 51 5 11 7 19 5 19 -3 0 1 17 8 38 7 20 16 49 20 64 l6 28 -777 -3
-778 -2 -13 -45 c-8 -25 -18 -54 -22 -65 -5 -11 -14 -40 -20 -65 -6 -25 -18
-63 -26 -85 -9 -22 -16 -42 -15 -45 0 -3 -5 -23 -11 -45 -6 -22 -12 -42 -13
-45 -1 -3 -10 -32 -20 -65 -10 -33 -20 -64 -21 -70 -1 -5 -14 -50 -29 -100
-15 -49 -29 -99 -32 -110 -3 -11 -7 -27 -10 -35 -3 -8 -7 -19 -9 -25 -2 -5
-26 -86 -54 -180 -29 -93 -56 -183 -60 -200 -15 -55 -31 -109 -72 -240 -41
-134 -105 -348 -112 -375 -2 -8 -18 -62 -36 -120 -17 -58 -33 -112 -35 -120
-2 -8 -4 -16 -5 -17 -2 -2 -3 -6 -4 -10 -8 -28 -31 -107 -46 -158 -55 -178
-81 -266 -85 -282 -2 -10 -16 -56 -30 -103 -37 -118 -65 -212 -70 -230 -2 -8
-4 -15 -5 -15 -1 0 -3 -7 -5 -15 -1 -8 -10 -40 -19 -70 -30 -96 -68 -224 -71
-240 -2 -8 -10 -34 -18 -57 -9 -22 -13 -44 -10 -47 4 -3 0 -6 -7 -6 -7 0 -11
-3 -7 -6 3 -3 -1 -23 -8 -45 -8 -22 -14 -42 -14 -44 0 -7 -8 -34 -66 -225 -26
-85 -48 -162 -50 -170 -2 -8 -10 -34 -19 -58 -8 -23 -15 -44 -15 -47 -1 -8
-31 -118 -38 -135 -3 -8 -7 -19 -8 -25 -2 -5 -13 -44 -25 -85 -12 -41 -23 -79
-25 -85 -1 -5 -4 -13 -5 -17 -4 -14 -49 -163 -90 -303 -23 -77 -46 -148 -51
-158 -6 -11 -8 -21 -5 -24 3 -3 -1 -18 -10 -34 -8 -16 -14 -31 -14 -34 1 -3
-6 -31 -15 -63 -10 -31 -18 -61 -19 -67 -2 -9 -20 -67 -86 -285 -45 -146 -121
-401 -132 -440 -5 -19 -12 -42 -15 -50 -3 -8 -7 -19 -8 -25 -2 -5 -22 -73 -45
-150 -23 -77 -43 -144 -44 -150 -2 -5 -6 -17 -9 -25 -6 -17 -38 -127 -42 -150
-2 -8 -4 -16 -5 -17 -2 -2 -3 -6 -4 -10 -12 -45 -41 -136 -53 -168 -8 -22 -14
-42 -14 -45 1 -3 -7 -30 -16 -60 -9 -30 -17 -60 -19 -66 -1 -6 -16 -57 -34
-114 -18 -57 -33 -108 -34 -114 -1 -6 -12 -44 -25 -84 -13 -40 -24 -78 -25
-85 -2 -7 -6 -19 -9 -27 -6 -16 -197 -657 -201 -675 -2 -5 -13 -44 -26 -85
-13 -41 -24 -79 -26 -85 -1 -5 -12 -44 -25 -85 -13 -41 -24 -77 -24 -80 -5
-23 -28 -100 -36 -120 -5 -14 -11 -34 -13 -45 -3 -11 -14 -49 -25 -84 -12 -35
-21 -67 -21 -72 0 -4 -5 -20 -12 -36 -6 -15 -13 -37 -15 -48 -2 -10 -14 -54
-27 -96 -13 -43 -21 -80 -18 -83 3 -3 0 -6 -6 -6 -7 0 -12 -7 -12 -15 0 -13
93 -15 780 -15 513 0 780 3 781 10 1 6 2 13 4 18 1 4 5 21 10 37 4 17 11 35
16 40 4 6 7 12 7 15 0 9 23 95 42 150 10 30 28 89 40 130 12 41 26 86 31 100
4 14 29 95 54 180 26 85 56 182 66 215 11 33 22 67 24 76 2 9 22 76 45 150 23
74 43 139 44 144 1 6 9 33 18 60 9 28 30 97 48 155 17 58 42 139 55 180 47
152 67 220 66 225 -1 4 5 21 35 100 4 11 9 29 11 40 2 11 11 43 20 70 10 28
18 53 19 58 1 4 2 8 4 10 1 1 3 9 5 17 4 21 133 443 157 515 11 33 22 69 24
80 2 11 13 49 25 85 11 36 22 72 24 80 2 8 15 51 29 95 15 44 31 98 37 120 5
22 14 49 19 60 5 11 15 40 21 65 7 25 13 47 14 50 1 3 10 32 20 65 10 33 20
65 21 70 1 6 30 98 63 205 33 107 74 242 91 300 17 58 34 112 37 120 4 8 7 17
7 20 1 3 10 35 21 73 l20 67 40 0 c48 1 413 1 612 0 l141 0 -23 -75 c-13 -42
-23 -77 -23 -78 -1 -1 -3 -9 -5 -17 -9 -29 -99 -335 -101 -345 -2 -5 -9 -30
-16 -55 -7 -25 -14 -49 -16 -55 -1 -5 -30 -104 -64 -220 -34 -115 -63 -214
-65 -220 -1 -5 -5 -17 -8 -25 -5 -12 -17 -53 -33 -115 -1 -5 -12 -41 -24 -80
-31 -103 -50 -168 -55 -185 -2 -8 -11 -35 -18 -60 -8 -25 -15 -48 -16 -53 -1
-8 -30 -109 -67 -232 -13 -44 -26 -89 -28 -100 -2 -11 -11 -40 -19 -65 -8 -25
-34 -110 -57 -190 -23 -80 -48 -165 -56 -190 -8 -25 -14 -48 -15 -52 -1 -4
-19 -65 -40 -135 -22 -70 -42 -139 -45 -153 -3 -14 -12 -45 -20 -70 -9 -25
-17 -53 -19 -63 -2 -9 -6 -21 -9 -25 -3 -5 -7 -19 -10 -33 -9 -40 -23 -89 -54
-191 l-30 -98 26 -1 c15 0 364 -1 777 -1 720 0 750 1 756 18 15 38 22 59 25
69 1 6 23 80 49 165 26 85 48 162 50 170 2 8 8 29 14 45 18 59 103 340 106
355 2 8 10 34 19 58 8 23 13 42 11 42 -2 0 2 15 10 34 8 18 16 44 19 57 3 13
19 69 36 124 18 55 43 138 56 185 32 110 30 103 37 120 3 8 11 35 18 60 7 25
14 50 15 55 7 23 35 116 59 195 15 47 28 90 29 95 1 6 9 30 16 55 8 25 14 47
15 50 1 3 7 23 14 45 7 22 16 54 21 70 9 31 73 246 135 450 20 66 38 125 39
130 1 6 9 30 16 55 7 25 15 50 16 55 1 6 19 64 39 130 20 66 38 127 40 135 2
8 4 16 5 18 2 1 4 7 5 12 1 6 4 12 5 15 1 3 3 8 4 13 12 44 28 100 33 112 3 8
8 22 9 30 2 8 35 119 74 245 39 127 72 237 74 245 1 8 12 49 25 90 52 169 61
199 91 298 18 56 33 108 34 115 2 10 20 70 67 222 5 17 24 82 43 145 19 63 49
161 66 217 17 56 33 110 35 120 2 10 22 77 44 148 22 72 56 186 76 255 20 69
40 132 43 140 3 8 6 20 8 27 3 15 24 83 31 103 3 8 7 20 8 26 3 12 107 357
151 503 15 47 27 89 28 95 1 6 7 27 13 46 21 66 75 243 77 254 2 6 11 38 21
71 11 33 19 62 20 65 1 3 9 32 20 65 10 33 19 65 21 71 1 6 16 56 32 110 17
54 51 169 77 254 25 85 55 184 66 220 12 36 22 72 24 80 2 8 27 92 56 185 28
94 52 175 53 180 4 17 47 157 68 220 11 33 21 69 23 80 2 11 29 102 59 202 31
100 56 189 56 197 0 9 4 16 8 16 5 0 9 6 9 13 0 6 3 22 7 35 l7 22 -779 0
-779 0 -42 -137z"/>
</g>
</svg>
